Coordinates
version=1
nRows=12
nColumns=19
inDegrees=yes

Units are S.I. units (second, meters, Newtons, ...)
If the header above contains a line with 'inDegrees', this indicates whether rotational values are in degrees (yes) or radians (no).

endheader
time	pelvis_to_ground_rx	pelvis_to_ground_ry	pelvis_to_ground_rz	pelvis_to_ground_tx	pelvis_to_ground_ty	pelvis_to_ground_tz	left_hip_abduction	left_hip_rotation	left_hip_flexion	left_knee_flexion	left_ankle_flexion	left_subtalar_angle	right_hip_abduction	right_hip_rotation	right_hip_flexion	right_knee_flexion	right_ankle_flexion	right_subtalar_angle
      0.29000000	    100.62980204	      7.87728396	     -8.11002897	     -1.95427386	     -0.69638996	      0.72981122	    -15.06694567	     -7.10648437	      9.45706898	    -21.37681942	      4.17029537	     -8.93638562	     -0.25147748	    -16.78323171	     33.11197285	    -61.71256521	     -0.91032071	    -13.20820786
      0.30000000	    100.56237634	      8.34285871	     -7.95285840	     -1.94328011	     -0.69715347	      0.72982919	    -14.77997627	     -7.42311764	      8.15792925	    -20.97999592	      4.13482947	     -8.74408807	     -0.46180926	    -16.74914743	     34.70752165	    -60.26396000	     -0.79589384	    -13.27582103
      0.31000000	    100.51282555	      8.81824854	     -7.77549491	     -1.93226649	     -0.69795874	      0.72959628	    -14.51541495	     -7.66387402	      6.86793941	    -20.63755002	      4.14583134	     -8.51521160	     -0.75661802	    -16.74944639	     36.12456771	    -58.48853597	     -0.77210225	    -13.24992342
      0.32000000	    100.47990849	      9.30619030	     -7.59079640	     -1.92119966	     -0.69881548	      0.72910751	    -14.26633286	     -7.86734535	      5.59665268	    -20.35663621	      4.20547874	     -8.26474185	     -1.12629158	    -16.79322067	     37.35378118	    -56.36293411	     -0.87428241	    -13.09634042
      0.33000000	    100.46252940	      9.79846879	     -7.40609887	     -1.91003083	     -0.69972521	      0.72836240	    -14.03058445	     -8.04994661	      4.34868794	    -20.14353688	      4.32768573	     -7.95977077	     -1.56569272	    -16.85963334	     38.37275417	    -53.87562011	     -1.15540028	    -12.75271184
      0.34000000	    100.45065301	     10.28883559	     -7.21222870	     -1.89870516	     -0.70069963	      0.72735729	    -13.79519369	     -8.18280476	      3.13515869	    -20.03837289	      4.53856708	     -7.59515741	     -2.06619335	    -16.92059873	     39.13928071	    -51.03210171	     -1.66410950	    -12.15758299
      0.35000000	    100.41361242	     10.77796483	     -7.07450775	     -1.88718031	     -0.70178206	      0.72610156	    -13.49584723	     -8.10325451	      2.12395841	    -20.18902386	      4.96750715	     -7.00644124	     -2.57330394	    -16.93123994	     39.69487275	    -47.84923171	     -2.38850584	    -11.14899370
      0.36000000	    100.42599628	     11.26325238	     -6.76618996	     -1.87532868	     -0.70289888	      0.72453243	    -13.29094925	     -8.25042089	      0.84745242	    -20.31097243	      5.16887106	     -6.77302421	     -3.25616258	    -16.87396711	     39.77328543	    -44.44853784	     -2.84612633	    -10.58225747
      0.37000000	    100.39594710	     11.76439618	     -6.53830739	     -1.86314728	     -0.70417754	      0.72272979	    -12.97985672	     -8.15073458	     -0.14838107	    -20.79350369	      5.86356727	     -5.89655895	     -3.91062569	    -16.73810305	     39.65099847	    -40.86972727	     -3.56566044	     -9.09527990
      0.38000000	    100.40713959	     12.24947055	     -6.13122714	     -1.85055292	     -0.70551616	      0.72062684	    -12.77037310	     -8.28713642	     -1.39301325	    -21.30947394	      6.00562532	     -5.85391875	     -4.75987832	    -16.40273417	     39.05254345	    -37.29838796	     -4.22292121	     -8.48616685
      0.39000000	    100.36648561	     12.77706582	     -5.79482244	     -1.83755159	     -0.70702613	      0.71834232	    -12.46832568	     -8.38752026	     -2.40558741	    -22.16129657	      6.31391501	     -5.78659893	     -5.56449686	    -15.98245133	     38.29803363	    -33.82985316	     -5.40275149	     -7.42143547
      0.40000000	    100.30237831	     13.28527488	     -5.27098620	     -1.82411655	     -0.70860942	      0.71581575	    -12.16000278	     -8.38411372	     -3.49932617	    -23.27478561	      6.50798525	     -5.75248470	     -6.44362527	    -15.37003292	     37.18949827	    -30.69793663	     -6.10558277	     -6.75239998
